# xmcd
#
# Track frame offsets: 
#        150
#        13308
#        27686
#        45483
#        62018
#        76906
#        88667
#        105637
#        121800
#        134544
#        149520
#
# Disc length: 2255 seconds
#
# Revision: 0
# Processed by: cddbd v1.5.2PL0 Copyright (c) Steve Scherf et al.
# Submitted via: ExactAudioCopy v1.1
#
DISCID=9708cd0b
DTITLE=Jonathon Long - Jonathon Long
DYEAR=2018
DGENRE=Blues
TTITLE0=Bury Me
TTITLE1=Shine Your Love
TTITLE2=That's When I Knew
TTITLE3=The Light
TTITLE4=Living The Blues
TTITLE5=Natural Girl
TTITLE6=The River
TTITLE7=Pour Another Drink
TTITLE8=This Road
TTITLE9=Where Love Went Wrong
TTITLE10=Pray For Me
EXTD=
EXTT0=
EXTT1=
EXTT2=
EXTT3=
EXTT4=
EXTT5=
EXTT6=
EXTT7=
EXTT8=
EXTT9=
EXTT10=
PLAYORDER=
